<svg width="93" height="50" viewBox="0 0 93 50" fill="none" xmlns="http://www.w3.org/2000/svg">
<path fill-rule="evenodd" clip-rule="evenodd" d="M34.9382 11.3878C37.1171 11.3878 38.6483 10.2522 38.6483 8.22681V8.19885C38.6483 6.42258 37.4924 5.6802 35.4431 5.14207C33.6968 4.69037 33.2634 4.47088 33.2634 3.80308V3.77258C33.2634 3.27766 33.7118 2.88359 34.5621 2.88359C35.2554 2.88359 35.9488 3.1319 36.6845 3.56834C36.8572 3.67003 37.0307 3.72935 37.2475 3.72935C37.8246 3.72935 38.2862 3.27766 38.2862 2.69546C38.2862 2.25817 38.0421 1.95308 37.7963 1.80647C36.8871 1.22512 35.8192 0.903931 34.5911 0.903931C32.5277 0.903931 31.0547 2.12766 31.0547 3.97681V4.00563C31.0547 6.0302 32.3683 6.59715 34.4043 7.12173C36.0933 7.55817 36.4395 7.84969 36.4395 8.41664V8.44715C36.4395 9.04291 35.8898 9.40647 34.9806 9.40647C33.9991 9.40647 33.1621 9.05902 32.3973 8.48952C32.2118 8.35533 31.9895 8.28417 31.7621 8.28614C31.1842 8.28614 30.7225 8.73783 30.7225 9.32003C30.7225 9.66919 30.8961 9.98952 31.141 10.1641C32.2524 10.9627 33.579 11.3902 34.9382 11.3878V11.3878ZM56.2145 5.33105H55.6017C55.4791 5.33183 55.3576 5.30793 55.2441 5.2607C55.1306 5.21348 55.0274 5.14387 54.9403 5.05585C54.8532 4.96784 54.784 4.86316 54.7366 4.7478C54.6892 4.63244 54.6646 4.50867 54.6642 4.38359C54.6647 4.25859 54.6895 4.13493 54.737 4.0197C54.7845 3.90448 54.8538 3.79997 54.941 3.71217C55.0282 3.62437 55.1315 3.55501 55.245 3.50808C55.3585 3.46114 55.48 3.43756 55.6025 3.43868H56.2145V2.46241C56.2145 1.85139 56.7052 1.35563 57.3122 1.35563C57.9184 1.35563 58.4083 1.85139 58.4083 2.46241V3.43868H59.6513C59.7738 3.43756 59.8953 3.46114 60.0088 3.50808C60.1223 3.55501 60.2256 3.62437 60.3128 3.71217C60.4 3.79997 60.4694 3.90448 60.5169 4.0197C60.5644 4.13493 60.5891 4.25859 60.5896 4.38359C60.5894 4.50881 60.5649 4.63275 60.5176 4.74826C60.4702 4.86378 60.4009 4.96859 60.3137 5.05666C60.2265 5.14473 60.1231 5.21431 60.0094 5.26141C59.8957 5.3085 59.774 5.33217 59.6513 5.33105H58.4091V8.66495C58.4091 9.17427 58.6258 9.42258 59.1157 9.42258C59.188 9.42258 59.3333 9.40647 59.3756 9.40647C59.868 9.40647 60.2849 9.81495 60.2849 10.3251C60.2849 10.7175 60.0266 11.0387 59.7227 11.1548C59.3192 11.3149 58.9422 11.3717 58.4672 11.3717C57.1245 11.3717 56.2145 10.8353 56.2145 9.02851V5.33105V5.33105ZM63.505 13.6158C64.8186 13.6158 65.468 13.0183 66.1181 11.4311L68.8168 4.89376C68.8616 4.79207 68.9181 4.54461 68.9181 4.37003C68.9181 3.78698 68.4423 3.35054 67.8802 3.35054C67.3155 3.35054 67 3.72935 66.8256 4.19461L65.2081 8.72342L63.5349 4.18105C63.3456 3.65563 63.0292 3.35054 62.4803 3.35054C61.8742 3.35054 61.3967 3.78698 61.3967 4.41241C61.3967 4.55817 61.4549 4.77766 61.513 4.92257L64.1552 11.0955L64.0829 11.27C63.8812 11.6641 63.6927 11.7378 63.3032 11.7378C63.1438 11.7378 63.0292 11.7073 62.8415 11.6497C62.7259 11.6082 62.6038 11.5884 62.4812 11.5912C62.0328 11.5912 61.6143 11.9556 61.6143 12.4938C61.6143 13.0327 61.9896 13.2946 62.3076 13.4107C62.6688 13.5421 63.0151 13.6158 63.505 13.6158V13.6158ZM50.299 5.33105H49.6389C49.1191 5.33105 48.7006 4.90732 48.7006 4.38359C48.7011 4.25859 48.7258 4.13493 48.7733 4.0197C48.8208 3.90448 48.8902 3.79997 48.9774 3.71217C49.0645 3.62437 49.1679 3.55501 49.2814 3.50808C49.3949 3.46114 49.5164 3.43756 49.6389 3.43868H50.299V2.46241C50.299 1.85139 50.7906 1.35563 51.3967 1.35563C52.0029 1.35563 52.4936 1.85139 52.4936 2.46241V3.43868H53.461C53.9808 3.43868 54.3993 3.85986 54.3993 4.38359C54.3993 4.90817 53.9808 5.33105 53.461 5.33105H52.4945V8.66495C52.4945 9.17427 52.712 9.42258 53.2019 9.42258C53.275 9.42258 53.4195 9.40647 53.4618 9.40647C53.9534 9.40647 54.3727 9.81495 54.3727 10.3251C54.3727 10.7175 54.1128 11.0387 53.8081 11.1548C53.4054 11.3149 53.0292 11.3717 52.5526 11.3717C51.2107 11.3717 50.2998 10.8353 50.2998 9.02851V5.33105H50.299ZM45.8599 4.45732C45.3401 3.8302 44.6185 3.29207 43.4494 3.29207C41.616 3.29207 39.927 4.71918 39.927 7.32512V7.35393C39.927 9.96156 41.6459 11.3878 43.4494 11.3878C44.5903 11.3878 45.326 10.8497 45.8599 10.12V10.2234C45.8599 10.8353 46.3515 11.3294 46.9585 11.3294C47.5646 11.3294 48.0546 10.8353 48.0546 10.2234V4.45732C48.0546 3.84546 47.5646 3.35054 46.9585 3.35054C46.3523 3.35054 45.8599 3.84546 45.8599 4.44291V4.45732ZM44.0124 5.17003C45.037 5.17003 45.889 6.0302 45.889 7.32512V7.35393C45.889 8.65054 45.037 9.50986 44.0124 9.50986C42.9877 9.50986 42.1217 8.65054 42.1217 7.35393V7.32512C42.1217 6.0141 42.9877 5.17003 44.0124 5.17003ZM81.3967 24.0234H86.2983C86.7849 24.0234 87.1868 23.6412 87.1868 23.1607C87.1868 22.6794 86.7849 22.2844 86.2983 22.2844H83.1172L86.6994 18.3946C87.0431 18.0277 87.1868 17.759 87.1868 17.3488V17.3065C87.1868 16.7963 86.7425 16.4429 86.1264 16.4429H81.3544C80.8661 16.4429 80.4659 16.8395 80.4659 17.3209C80.4659 17.8014 80.8661 18.1819 81.3544 18.1819H84.3918L80.8238 22.0717C80.48 22.4404 80.3363 22.709 80.3363 23.1175V23.1607C80.3363 23.67 80.7798 24.0234 81.3967 24.0234ZM74.0921 26.3277C75.3957 26.3277 76.0409 25.7488 76.6853 24.2073L79.3665 17.8582C79.408 17.759 79.4661 17.5192 79.4661 17.3497C79.4661 16.7827 78.9928 16.3582 78.434 16.3582C77.876 16.3582 77.5596 16.7268 77.3877 17.1794L75.7827 21.5777L74.1203 17.1649C73.9343 16.6565 73.6179 16.3582 73.074 16.3582C72.472 16.3582 71.9996 16.7827 71.9996 17.3904C71.9996 17.5327 72.0577 17.7438 72.1133 17.8861L74.7372 23.8811L74.665 24.0505C74.4641 24.4336 74.2781 24.5039 73.8903 24.5039C73.7342 24.5039 73.6179 24.4751 73.4319 24.4192C73.3166 24.3801 73.1956 24.3612 73.074 24.3633C72.6298 24.3633 72.2138 24.7166 72.2138 25.2395C72.2138 25.7624 72.5874 26.0175 72.9022 26.1294C73.2592 26.2582 73.6038 26.3277 74.0921 26.3277V26.3277ZM70.6295 14.6904C70.6295 14.0963 70.1429 13.6158 69.5409 13.6158C68.938 13.6158 68.4506 14.0963 68.4506 14.6904V17.4336C67.9358 16.826 67.2184 16.3022 66.0575 16.3022C64.2365 16.3022 62.5601 17.6887 62.5601 20.2192V20.2472C62.5601 22.7794 64.2664 24.1641 66.0575 24.1641C67.1901 24.1641 67.92 23.6412 68.4506 22.9336V23.0327C68.4506 23.6268 68.938 24.109 69.5409 24.109C70.1429 24.109 70.6286 23.6268 70.6286 23.0327V14.6904H70.6295ZM66.6172 18.1268C67.6335 18.1268 68.4805 18.9616 68.4805 20.22V20.2472C68.4805 21.5065 67.6335 22.3404 66.6172 22.3404C65.5992 22.3404 64.7389 21.5065 64.7389 20.2472V20.2192C64.7389 18.9463 65.5992 18.126 66.6172 18.126V18.1268ZM58.7537 23.0336C58.7537 23.6268 59.2403 24.1082 59.8423 24.1082C60.4443 24.1082 60.9326 23.6268 60.9326 23.0327V14.6904C60.9326 14.0963 60.4443 13.6158 59.8423 13.6158C59.2403 13.6158 58.7545 14.0963 58.7545 14.6904V23.0327L58.7537 23.0336ZM56.7808 17.4336C56.7808 16.8404 56.2942 16.3582 55.6922 16.3582C55.0902 16.3582 54.6036 16.8395 54.6036 17.4344V20.6717C54.6036 21.6904 54.073 22.2133 53.2418 22.2133C52.4106 22.2133 51.9224 21.6904 51.9224 20.6709V17.4336C51.9224 16.8404 51.4358 16.3582 50.8346 16.3582C50.2317 16.3582 49.7435 16.8395 49.7435 17.4344V21.3505C49.7435 23.0895 50.7042 24.1641 52.3525 24.1641C53.4569 24.1641 54.1012 23.5853 54.6027 22.948V23.0327C54.6027 23.6268 55.0902 24.109 55.6922 24.109C56.2942 24.109 56.7808 23.6268 56.7808 23.0327V17.4336V17.4336ZM40.9492 23.0327C40.9492 23.6268 41.4374 24.109 42.0386 24.109C42.6406 24.109 43.128 23.6268 43.128 23.0327V19.7955C43.128 18.776 43.6586 18.2531 44.4898 18.2531C45.321 18.2531 45.8076 18.776 45.8076 19.7955V23.0327C45.8076 23.6268 46.2959 24.109 46.8979 24.109C47.4999 24.109 47.9865 23.6268 47.9865 23.0327V19.1158C47.9865 17.3768 47.0266 16.3022 45.3775 16.3022C44.2748 16.3022 43.6304 16.8827 43.128 17.5183V14.6904C43.128 14.0963 42.6406 13.6158 42.0386 13.6158C41.4374 13.6158 40.9492 14.0963 40.9492 14.6904V23.0327V23.0327ZM31.6965 24.0234H38.2746C38.806 24.0234 39.2503 23.5997 39.2503 23.076C39.2503 22.5531 38.806 22.1149 38.2746 22.1149H33.6454L38.8476 16.1472C39.105 15.8353 39.2494 15.5107 39.2494 15.1285V15.0861C39.2494 14.5633 38.8052 14.1251 38.2738 14.1251H31.8684C31.3378 14.1251 30.8927 14.5633 30.8927 15.0861C30.8927 15.6099 31.3378 16.0336 31.8684 16.0336H36.3249L31.1219 22.0014C30.8645 22.298 30.7217 22.637 30.7217 23.0183V23.0624C30.7217 23.5853 31.1659 24.0234 31.6957 24.0234H31.6965Z" fill="white"/>
<mask id="mask0_1_2146" style="mask-type:alpha" maskUnits="userSpaceOnUse" x="0" y="0" width="93" height="50">
<path d="M0 0H92.8456V49.6847H0V0Z" fill="white"/>
</mask>
<g mask="url(#mask0_1_2146)">
<path fill-rule="evenodd" clip-rule="evenodd" d="M91.4855 15.2997C90.7963 15.2997 90.1262 15.8624 90.1262 16.687C90.1262 17.5099 90.7963 18.0743 91.4855 18.0743C92.1789 18.0743 92.8448 17.5099 92.8448 16.687C92.8448 15.8624 92.1789 15.2997 91.4855 15.2997ZM91.4855 15.5514C92.0435 15.5514 92.5783 16.0099 92.5783 16.687C92.5783 17.3624 92.0435 17.8209 91.4855 17.8209C91.341 17.8198 91.1981 17.7895 91.0651 17.7318C90.9321 17.6742 90.8116 17.5902 90.7105 17.4848C90.6094 17.3795 90.5297 17.2547 90.4761 17.1178C90.4224 16.9809 90.3958 16.8344 90.3977 16.687C90.3977 16.0099 90.9275 15.5514 91.4855 15.5514ZM91.478 15.9243H90.9823V17.4175H91.1642V16.8531H91.4423L91.8534 17.4175H92.0593L91.6375 16.8463C91.8874 16.7912 92.0319 16.6158 92.0319 16.3946C92.0319 16.1226 91.8185 15.9243 91.478 15.9243ZM91.4855 16.0997C91.7105 16.0997 91.8417 16.2124 91.8417 16.3946C91.8417 16.581 91.7105 16.6827 91.4847 16.6827H91.1642V16.0997H91.4855Z" fill="white"/>
<path fill-rule="evenodd" clip-rule="evenodd" d="M8.96803 18.2117L2.18235 19.5312C1.88259 19.5889 1.55959 19.6821 1.25401 19.6473C1.11444 19.6308 0.977949 19.5937 0.848799 19.5372C0.67983 19.465 0.526637 19.3593 0.39817 19.2261C0.269702 19.0928 0.168537 18.9348 0.100584 18.7612C0.0326311 18.5877 -0.000746668 18.402 0.00240085 18.2151C0.00554836 18.0282 0.045158 17.8438 0.118916 17.6727C0.259246 17.3482 0.639549 16.9609 0.871219 16.6838L5.12597 11.6177L1.59944 5.22275C1.55172 5.1392 1.50821 5.05321 1.46908 4.96512C1.39145 4.78706 1.35133 4.59434 1.35133 4.39945C1.35133 4.20455 1.39145 4.01183 1.46908 3.83377C1.5997 3.53864 1.82347 3.29671 2.10465 3.14663C2.38582 2.99654 2.70816 2.94696 3.02018 3.0058C3.22777 3.04394 3.5267 3.18546 3.75671 3.27868L10.1804 5.89818L15.2231 0.476989C15.2497 0.448176 15.2779 0.422752 15.3061 0.394786C15.509 0.200443 15.7631 0.0707776 16.0372 0.021701C16.3112 -0.0273755 16.5934 0.00627214 16.849 0.118515C17.3887 0.354108 17.705 0.887159 17.6959 1.44055C17.6951 1.48123 17.6951 1.51936 17.6926 1.55919L17.1612 8.9558L23.4436 11.9007C23.6695 12.005 23.9759 12.1312 24.1445 12.2583C24.3497 12.4101 24.51 12.6168 24.6075 12.8556C24.705 13.0945 24.736 13.3561 24.6971 13.6118C24.6582 13.8674 24.5509 14.1071 24.387 14.3045C24.2231 14.5019 24.009 14.6493 23.7683 14.7304C23.6745 14.7643 23.5881 14.7855 23.4918 14.81L16.4313 16.5626C19.4289 33.0321 33.799 45.5168 51.0763 45.5168C61.6434 45.5168 71.1236 40.8456 77.5788 33.449C77.7781 33.2151 78.072 33.0677 78.4017 33.0677C79.2885 33.0677 79.7676 34.0338 79.2843 34.7719C79.139 34.9931 78.9422 35.2465 78.7205 35.5092C77.7075 36.7109 76.4503 37.9677 75.2945 39.0372C68.1476 45.6456 58.6043 49.6838 48.1219 49.6838C28.9738 49.6838 12.962 36.2202 8.96803 18.2109V18.2117Z" fill="#E1BE88"/>
</g>
<path d="M49.5833 30.4232C49.5833 30.4523 49.5804 30.4871 49.5746 30.5278C49.5746 30.5685 49.5688 30.615 49.5571 30.6673C49.5513 30.7138 49.5397 30.769 49.5222 30.8329C49.5106 30.8968 49.4932 30.9694 49.4699 31.0508L47.1331 38.0845C47.1041 38.1832 47.0634 38.2646 47.0111 38.3285C46.9646 38.3866 46.8832 38.4331 46.7669 38.468C46.6565 38.5028 46.5024 38.5261 46.3048 38.5377C46.113 38.5493 45.8601 38.5551 45.5462 38.5551C45.2381 38.5551 44.9852 38.5464 44.7876 38.529C44.5958 38.5174 44.4446 38.4941 44.3342 38.4592C44.2237 38.4244 44.1424 38.3779 44.0901 38.3198C44.0435 38.2559 44.0058 38.1774 43.9767 38.0845L41.6399 31.0508C41.605 30.9346 41.576 30.83 41.5527 30.737C41.5353 30.644 41.5236 30.5772 41.5178 30.5365C41.5178 30.4959 41.5178 30.4581 41.5178 30.4232C41.5178 30.3651 41.5324 30.3157 41.5614 30.2751C41.5963 30.2286 41.6544 30.1908 41.7358 30.1617C41.8172 30.1327 41.9276 30.1124 42.0671 30.1007C42.2125 30.0891 42.3927 30.0833 42.6077 30.0833C42.8461 30.0833 43.0379 30.092 43.1832 30.1095C43.3286 30.1211 43.4419 30.1414 43.5233 30.1705C43.6105 30.1937 43.6715 30.2315 43.7064 30.2838C43.7413 30.3303 43.7703 30.3884 43.7936 30.4581L45.5636 36.167L45.6159 36.3849L45.6683 36.167L47.4121 30.4581C47.4296 30.3884 47.4557 30.3303 47.4906 30.2838C47.5313 30.2315 47.5924 30.1937 47.6737 30.1705C47.7551 30.1414 47.8627 30.1211 47.9964 30.1095C48.1359 30.092 48.3161 30.0833 48.537 30.0833C48.752 30.0833 48.9264 30.0891 49.0601 30.1007C49.1996 30.1124 49.3072 30.1327 49.3827 30.1617C49.4583 30.1908 49.5106 30.2286 49.5397 30.2751C49.5688 30.3157 49.5833 30.3651 49.5833 30.4232Z" fill="#E1BE88"/>
<path d="M53.0798 38.2065C53.0798 38.2646 53.0623 38.3169 53.0275 38.3634C52.9926 38.404 52.9315 38.4389 52.8443 38.468C52.763 38.497 52.6525 38.5174 52.513 38.529C52.3735 38.5464 52.1962 38.5551 51.9811 38.5551C51.766 38.5551 51.5888 38.5464 51.4492 38.529C51.3097 38.5174 51.1964 38.497 51.1092 38.468C51.0278 38.4389 50.9697 38.404 50.9348 38.3634C50.8999 38.3169 50.8825 38.2646 50.8825 38.2065V30.4494C50.8825 30.3913 50.8999 30.3419 50.9348 30.3012C50.9697 30.2547 51.0278 30.2169 51.1092 30.1879C51.1964 30.153 51.3097 30.1269 51.4492 30.1095C51.5888 30.092 51.766 30.0833 51.9811 30.0833C52.1962 30.0833 52.3735 30.092 52.513 30.1095C52.6525 30.1269 52.763 30.153 52.8443 30.1879C52.9315 30.2169 52.9926 30.2547 53.0275 30.3012C53.0623 30.3419 53.0798 30.3913 53.0798 30.4494V38.2065ZM53.2454 27.7997C53.2454 28.2414 53.1553 28.5464 52.9751 28.7149C52.7949 28.8834 52.4607 28.9677 51.9724 28.9677C51.4783 28.9677 51.1441 28.8863 50.9697 28.7236C50.8011 28.5609 50.7168 28.2675 50.7168 27.8433C50.7168 27.4017 50.804 27.0967 50.9784 26.9282C51.1586 26.7538 51.4957 26.6667 51.9898 26.6667C52.4781 26.6667 52.8095 26.7509 52.9839 26.9194C53.1582 27.0821 53.2454 27.3756 53.2454 27.7997Z" fill="#E1BE88"/>
<path d="M63.1071 34.2059C63.1071 34.8974 63.0315 35.522 62.8804 36.0798C62.7351 36.6318 62.52 37.1025 62.2352 37.4918C61.9503 37.8811 61.5957 38.1803 61.1714 38.3895C60.747 38.5987 60.2617 38.7033 59.7153 38.7033C59.4885 38.7033 59.2793 38.68 59.0875 38.6336C58.9014 38.5929 58.7183 38.529 58.5381 38.4418C58.3637 38.3488 58.1894 38.2355 58.015 38.1019C57.8406 37.9683 57.6604 37.8114 57.4744 37.6312V41.2919C57.4744 41.35 57.4569 41.4023 57.422 41.4488C57.3872 41.4953 57.3261 41.533 57.2389 41.5621C57.1576 41.597 57.0471 41.6231 56.9076 41.6405C56.7681 41.658 56.5908 41.6667 56.3757 41.6667C56.1606 41.6667 55.9833 41.658 55.8438 41.6405C55.7043 41.6231 55.591 41.597 55.5038 41.5621C55.4224 41.533 55.3643 41.4953 55.3294 41.4488C55.2945 41.4023 55.2771 41.35 55.2771 41.2919V30.4319C55.2771 30.3738 55.2916 30.3244 55.3207 30.2838C55.3497 30.2373 55.3991 30.1995 55.4689 30.1705C55.5445 30.1414 55.6404 30.1211 55.7566 30.1095C55.8787 30.092 56.0298 30.0833 56.21 30.0833C56.3844 30.0833 56.5298 30.092 56.646 30.1095C56.7681 30.1211 56.864 30.1414 56.9338 30.1705C57.0093 30.1995 57.0616 30.2373 57.0907 30.2838C57.1198 30.3244 57.1343 30.3738 57.1343 30.4319V31.3471C57.361 31.1147 57.5819 30.9113 57.797 30.737C58.0179 30.5569 58.2417 30.4087 58.4684 30.2925C58.6951 30.1705 58.9276 30.0804 59.1659 30.0223C59.4101 29.9642 59.6687 29.9351 59.942 29.9351C60.5116 29.9351 60.997 30.0484 61.3981 30.2751C61.7992 30.4959 62.1247 30.8009 62.3747 31.1902C62.6304 31.5795 62.8165 32.0328 62.9327 32.5499C63.049 33.067 63.1071 33.619 63.1071 34.2059ZM60.8226 34.3628C60.8226 34.0316 60.7965 33.7149 60.7441 33.4128C60.6976 33.1048 60.6133 32.8317 60.4913 32.5935C60.375 32.3552 60.2181 32.1664 60.0204 32.0269C59.8286 31.8817 59.5874 31.809 59.2967 31.809C59.1514 31.809 59.0061 31.8323 58.8607 31.8788C58.7212 31.9194 58.5759 31.9892 58.4248 32.088C58.2795 32.1867 58.1283 32.3146 57.9714 32.4715C57.8144 32.6283 57.6487 32.823 57.4744 33.0554V35.6179C57.7824 36.0072 58.076 36.3093 58.355 36.5243C58.634 36.7335 58.9247 36.8381 59.227 36.8381C59.5118 36.8381 59.753 36.7655 59.9507 36.6202C60.1541 36.4749 60.3198 36.2861 60.4477 36.0537C60.5756 35.8154 60.6686 35.5481 60.7267 35.2518C60.7906 34.9555 60.8226 34.6591 60.8226 34.3628Z" fill="#E1BE88"/>
</svg>
