<svg width="93" height="50" viewBox="0 0 93 50" fill="none" xmlns="http://www.w3.org/2000/svg">
<path fill-rule="evenodd" clip-rule="evenodd" d="M34.9457 14.8152C37.1251 14.8152 38.6567 13.6723 38.6567 11.634V11.6059C38.6567 9.81833 37.5006 9.07124 35.4507 8.52968C33.704 8.07511 33.2704 7.85422 33.2704 7.18218V7.15148C33.2704 6.65341 33.7189 6.25684 34.5695 6.25684C35.263 6.25684 35.9565 6.50672 36.6924 6.94594C36.8652 7.04828 37.0388 7.10798 37.2556 7.10798C37.8328 7.10798 38.2946 6.65341 38.2946 6.06751C38.2946 5.62744 38.0504 5.32041 37.8046 5.17287C36.8951 4.58782 35.827 4.26459 34.5985 4.26459C32.5345 4.26459 31.0611 5.4961 31.0611 7.35701V7.38601C31.0611 9.42346 32.3751 9.99402 34.4116 10.5219C36.101 10.9611 36.4474 11.2545 36.4474 11.8251V11.8558C36.4474 12.4553 35.8976 12.8212 34.9881 12.8212C34.0063 12.8212 33.1691 12.4715 32.4041 11.8984C32.2185 11.7634 31.9962 11.6918 31.7687 11.6937C31.1907 11.6937 30.7289 12.1483 30.7289 12.7342C30.7289 13.0856 30.9024 13.408 31.1475 13.5837C32.2592 14.3873 33.5861 14.8176 34.9457 14.8152ZM56.2276 8.71986H55.6147C55.4921 8.72065 55.3705 8.69659 55.257 8.64907C55.1435 8.60154 55.0402 8.53149 54.9531 8.44292C54.866 8.35434 54.7968 8.24899 54.7494 8.1329C54.702 8.01681 54.6774 7.89226 54.6769 7.76638C54.6775 7.64058 54.7022 7.51613 54.7497 7.40018C54.7973 7.28422 54.8666 7.17904 54.9538 7.09069C55.041 7.00233 55.1444 6.93253 55.2579 6.8853C55.3715 6.83807 55.493 6.81433 55.6155 6.81545H56.2276V5.83297C56.2276 5.21807 56.7185 4.71916 57.3257 4.71916C57.932 4.71916 58.422 5.21807 58.422 5.83297V6.81545H59.6654C59.7879 6.81433 59.9094 6.83807 60.023 6.8853C60.1365 6.93253 60.2399 7.00233 60.3271 7.09069C60.4143 7.17904 60.4837 7.28422 60.5312 7.40018C60.5787 7.51613 60.6034 7.64058 60.604 7.76638C60.6037 7.89239 60.5793 8.01712 60.5319 8.13337C60.4845 8.24962 60.4152 8.3551 60.328 8.44373C60.2407 8.53236 60.1373 8.60238 60.0236 8.64978C59.9099 8.69717 59.7881 8.72099 59.6654 8.71986H58.4229V12.075C58.4229 12.5875 58.6396 12.8374 59.1297 12.8374C59.2019 12.8374 59.3473 12.8212 59.3897 12.8212C59.8822 12.8212 60.2991 13.2323 60.2991 13.7457C60.2991 14.1406 60.0408 14.4638 59.7368 14.5806C59.3332 14.7418 58.9561 14.799 58.481 14.799C57.138 14.799 56.2276 14.2591 56.2276 12.4408V8.71986ZM63.5201 17.0573C64.8341 17.0573 65.4836 16.456 66.134 14.8587L68.8333 8.27979C68.8782 8.17745 68.9347 7.92842 68.9347 7.75273C68.9347 7.16597 68.4587 6.72676 67.8964 6.72676C67.3317 6.72676 67.016 7.10798 66.8416 7.57619L65.2236 12.1338L63.55 7.56255C63.3607 7.03378 63.0442 6.72676 62.4952 6.72676C61.8889 6.72676 61.4113 7.16597 61.4113 7.79538C61.4113 7.94207 61.4694 8.16295 61.5276 8.30879L64.1705 14.5209L64.0982 14.6966C63.8964 15.0932 63.7078 15.1674 63.3183 15.1674C63.1588 15.1674 63.0442 15.1367 62.8565 15.0787C62.7408 15.037 62.6186 15.017 62.496 15.0198C62.0475 15.0198 61.6289 15.3866 61.6289 15.9281C61.6289 16.4705 62.0043 16.7341 62.3224 16.8509C62.6837 16.9831 63.0301 17.0573 63.5201 17.0573ZM50.3106 8.71986H49.6503C49.1303 8.71986 48.7117 8.29344 48.7117 7.76638C48.7123 7.64058 48.737 7.51613 48.7845 7.40018C48.832 7.28422 48.9014 7.17904 48.9886 7.09069C49.0758 7.00233 49.1791 6.93253 49.2927 6.8853C49.4063 6.83807 49.5278 6.81433 49.6503 6.81545H50.3106V5.83297C50.3106 5.21807 50.8023 4.71916 51.4086 4.71916C52.0149 4.71916 52.5058 5.21807 52.5058 5.83297V6.81545H53.4734C53.9934 6.81545 54.412 7.23932 54.412 7.76638C54.412 8.29429 53.9934 8.71986 53.4734 8.71986H52.5066V12.075C52.5066 12.5875 52.7243 12.8374 53.2143 12.8374C53.2874 12.8374 53.4319 12.8212 53.4743 12.8212C53.966 12.8212 54.3854 13.2323 54.3854 13.7457C54.3854 14.1406 54.1254 14.4638 53.8206 14.5806C53.4178 14.7418 53.0415 14.799 52.5648 14.799C51.2226 14.799 50.3114 14.2591 50.3114 12.4408V8.71986H50.3106ZM45.8703 7.84058C45.3504 7.20947 44.6286 6.66791 43.4591 6.66791C41.6252 6.66791 39.9358 8.10411 39.9358 10.7266V10.7556C39.9358 13.3798 41.6551 14.8152 43.4591 14.8152C44.6004 14.8152 45.3363 14.2736 45.8703 13.5393V13.6434C45.8703 14.2591 46.362 14.7563 46.9692 14.7563C47.5755 14.7563 48.0655 14.2591 48.0655 13.6434V7.84058C48.0655 7.22482 47.5755 6.72676 46.9692 6.72676C46.3629 6.72676 45.8703 7.22482 45.8703 7.82608V7.84058ZM44.0223 8.55782C45.0472 8.55782 45.8994 9.42346 45.8994 10.7266V10.7556C45.8994 12.0605 45.0472 12.9253 44.0223 12.9253C42.9973 12.9253 42.131 12.0605 42.131 10.7556V10.7266C42.131 9.40726 42.9973 8.55782 44.0223 8.55782ZM81.4166 27.5311H86.3195C86.8062 27.5311 87.2082 27.1465 87.2082 26.6629C87.2082 26.1785 86.8062 25.7811 86.3195 25.7811H83.1376L86.7207 21.8665C87.0646 21.4972 87.2082 21.2269 87.2082 20.8141V20.7715C87.2082 20.258 86.7639 19.9024 86.1476 19.9024H81.3743C80.8859 19.9024 80.4855 20.3015 80.4855 20.7859C80.4855 21.2695 80.8859 21.6524 81.3743 21.6524H84.4125L80.8435 25.567C80.4997 25.938 80.356 26.2084 80.356 26.6194V26.6629C80.356 27.1755 80.7995 27.5311 81.4166 27.5311ZM74.11 29.85C75.414 29.85 76.0594 29.2675 76.7039 27.7162L79.3858 21.3267C79.4274 21.2269 79.4855 20.9855 79.4855 20.8149C79.4855 20.2444 79.0121 19.8171 78.4531 19.8171C77.895 19.8171 77.5785 20.1881 77.4066 20.6435L75.8011 25.0698L74.1382 20.629C73.9522 20.1173 73.6357 19.8171 73.0917 19.8171C72.4895 19.8171 72.0169 20.2444 72.0169 20.8559C72.0169 20.9992 72.0751 21.2115 72.1307 21.3548L74.7554 27.3878L74.6831 27.5584C74.4821 27.9439 74.2961 28.0147 73.9082 28.0147C73.752 28.0147 73.6357 27.9857 73.4497 27.9294C73.3343 27.89 73.2133 27.871 73.0917 27.8731C72.6474 27.8731 72.2312 28.2288 72.2312 28.755C72.2312 29.2812 72.605 29.5379 72.9198 29.6504C73.2769 29.7801 73.6216 29.85 74.11 29.85ZM70.6465 18.1387C70.6465 17.5409 70.1598 17.0573 69.5576 17.0573C68.9546 17.0573 68.4671 17.5409 68.4671 18.1387V20.8994C67.9521 20.2879 67.2345 19.7608 66.0733 19.7608C64.2519 19.7608 62.5749 21.1561 62.5749 23.7027V23.7308C62.5749 26.2791 64.2818 27.6727 66.0733 27.6727C67.2062 27.6727 67.9363 27.1465 68.4671 26.4344V26.5341C68.4671 27.132 68.9546 27.6173 69.5576 27.6173C70.1598 27.6173 70.6457 27.132 70.6457 26.5341V18.1387H70.6465ZM66.6331 21.597C67.6498 21.597 68.497 22.4371 68.497 23.7035V23.7308C68.497 24.9982 67.6498 25.8374 66.6331 25.8374C65.6148 25.8374 64.7544 24.9982 64.7544 23.7308V23.7027C64.7544 22.4217 65.6148 21.5962 66.6331 21.5962V21.597ZM58.7676 26.535C58.7676 27.132 59.2543 27.6164 59.8564 27.6164C60.4586 27.6164 60.947 27.132 60.947 26.5341V18.1387C60.947 17.5409 60.4586 17.0573 59.8564 17.0573C59.2543 17.0573 58.7684 17.5409 58.7684 18.1387V26.5341L58.7676 26.535ZM56.7941 20.8994C56.7941 20.3024 56.3074 19.8171 55.7052 19.8171C55.103 19.8171 54.6163 20.3015 54.6163 20.9002V24.1581C54.6163 25.1832 54.0856 25.7094 53.2542 25.7094C52.4228 25.7094 51.9344 25.1832 51.9344 24.1573V20.8994C51.9344 20.3024 51.4477 19.8171 50.8463 19.8171C50.2433 19.8171 49.7549 20.3015 49.7549 20.9002V24.8412C49.7549 26.5913 50.7159 27.6727 52.3646 27.6727C53.4693 27.6727 54.1138 27.0902 54.6155 26.4489V26.5341C54.6155 27.132 55.103 27.6173 55.7052 27.6173C56.3074 27.6173 56.7941 27.132 56.7941 26.5341V20.8994ZM40.9583 26.5341C40.9583 27.132 41.4467 27.6173 42.048 27.6173C42.6502 27.6173 43.1377 27.132 43.1377 26.5341V23.2763C43.1377 22.2503 43.6685 21.7241 44.4999 21.7241C45.3313 21.7241 45.818 22.2503 45.818 23.2763V26.5341C45.818 27.132 46.3064 27.6173 46.9085 27.6173C47.5107 27.6173 47.9974 27.132 47.9974 26.5341V22.5923C47.9974 20.8422 47.0373 19.7608 45.3877 19.7608C44.2847 19.7608 43.6402 20.345 43.1377 20.9847V18.1387C43.1377 17.5409 42.6502 17.0573 42.048 17.0573C41.4467 17.0573 40.9583 17.5409 40.9583 18.1387V26.5341ZM31.7031 27.5311H38.283C38.8145 27.5311 39.2589 27.1047 39.2589 26.5776C39.2589 26.0514 38.8145 25.6105 38.283 25.6105H33.6525L38.8561 19.6048C39.1136 19.2909 39.2581 18.9643 39.2581 18.5796V18.537C39.2581 18.0108 38.8137 17.5699 38.2821 17.5699H31.8751C31.3443 17.5699 30.8991 18.0108 30.8991 18.537C30.8991 19.0641 31.3443 19.4905 31.8751 19.4905H36.3328L31.1284 25.4962C30.8709 25.7947 30.728 26.1359 30.728 26.5196V26.564C30.728 27.0902 31.1724 27.5311 31.7023 27.5311H31.7031Z" fill="#2B5DA8"/>
<path fill-rule="evenodd" clip-rule="evenodd" d="M8.96823 18.3278L2.18074 19.6557C1.8809 19.7137 1.5578 19.8075 1.25215 19.7725C1.11254 19.7559 0.976013 19.7185 0.846829 19.6617C0.677814 19.5891 0.52458 19.4827 0.396078 19.3486C0.267577 19.2145 0.166384 19.0555 0.098413 18.8808C0.0304419 18.7061 -0.00294472 18.5193 0.000203635 18.3312C0.00335199 18.1431 0.0429722 17.9576 0.11675 17.7854C0.257117 17.4588 0.637523 17.069 0.869254 16.7901L5.12514 11.6918L1.59767 5.25621C1.54994 5.17213 1.50641 5.08559 1.46727 4.99695C1.38962 4.81775 1.3495 4.62381 1.3495 4.42767C1.3495 4.23154 1.38962 4.03759 1.46727 3.8584C1.59793 3.56139 1.82176 3.31793 2.10301 3.16689C2.38426 3.01584 2.70669 2.96595 3.01879 3.02517C3.22644 3.06354 3.52545 3.20597 3.75552 3.29978L10.1809 5.93593L15.225 0.480269C15.2516 0.451272 15.2798 0.425687 15.308 0.397543C15.511 0.201964 15.7651 0.0714735 16.0392 0.0220848C16.3134 -0.027304 16.5956 0.00655772 16.8513 0.119514C17.3911 0.356606 17.7076 0.893047 17.6984 1.44996C17.6976 1.49089 17.6976 1.52927 17.6951 1.56935L17.1636 9.01301L23.4477 11.9767C23.6736 12.0816 23.9801 12.2086 24.1487 12.3366C24.3541 12.4893 24.5143 12.6973 24.6119 12.9377C24.7094 13.178 24.7404 13.4413 24.7015 13.6986C24.6626 13.9559 24.5553 14.1971 24.3913 14.3957C24.2274 14.5944 24.0133 14.7427 23.7725 14.8243C23.6786 14.8584 23.5922 14.8797 23.4959 14.9045L16.4335 16.6682C19.4319 33.2424 33.8059 45.8065 51.0877 45.8065C61.6577 45.8065 71.1404 41.1057 77.5973 33.662C77.7967 33.4266 78.0907 33.2782 78.4204 33.2782C79.3075 33.2782 79.7867 34.2505 79.3033 34.9933C79.158 35.2159 78.9611 35.4709 78.7394 35.7353C77.7261 36.9446 76.4686 38.2094 75.3124 39.2857C68.1636 45.9362 58.6178 50 48.1325 50C28.9794 50 12.9633 36.4508 8.96823 18.327V18.3278Z" fill="#FECC00"/>
<path fill-rule="evenodd" clip-rule="evenodd" d="M91.5081 18.7519C90.8187 18.7519 90.1484 19.3182 90.1484 20.148C90.1484 20.9761 90.8187 21.5441 91.5081 21.5441C92.2016 21.5441 92.8677 20.9761 92.8677 20.148C92.8677 19.3182 92.2016 18.7519 91.5081 18.7519ZM91.5081 19.0052C92.0662 19.0052 92.6011 19.4666 92.6011 20.148C92.6011 20.8277 92.0662 21.2891 91.5081 21.2891C91.3636 21.288 91.2206 21.2576 91.0876 21.1995C90.9546 21.1415 90.834 21.057 90.7329 20.951C90.6318 20.8449 90.5521 20.7194 90.4984 20.5816C90.4447 20.4438 90.4181 20.2964 90.42 20.148C90.42 19.4666 90.9499 19.0052 91.5081 19.0052ZM91.5006 19.3804H91.0048V20.8832H91.1867V20.3152H91.4649L91.876 20.8832H92.082L91.6601 20.3083C91.9101 20.2529 92.0546 20.0764 92.0546 19.8538C92.0546 19.58 91.8412 19.3804 91.5006 19.3804ZM91.5081 19.557C91.7332 19.557 91.8644 19.6704 91.8644 19.8538C91.8644 20.0414 91.7332 20.1437 91.5073 20.1437H91.1867V19.557H91.5081Z" fill="#2B5DA8"/>
</svg>
