<svg width="26" height="30" viewBox="0 0 26 30" fill="none" xmlns="http://www.w3.org/2000/svg">
<path fill-rule="evenodd" clip-rule="evenodd" d="M18.6 13.3605C18.6 10.0408 16.8093 7.73674 14.4924 7.045C14.4085 6.82307 14.2759 6.61674 14.0956 6.44362C13.4798 5.85213 12.5203 5.85213 11.9045 6.44362C11.7246 6.61635 11.5922 6.82214 11.5083 7.0435C9.18831 7.73219 7.4 10.0313 7.4 13.3605C7.4 15.5146 6.97519 16.7217 6.18877 17.5964C6.05728 17.7426 5.70103 18.0777 5.45972 18.3046L5.45965 18.3047L5.45942 18.3049C5.3454 18.4121 5.25709 18.4952 5.23037 18.5227L5 18.7615V21.5504H9.87044C10.0351 22.419 10.4961 23.0001 11.3298 23.5201C12.3554 24.1599 13.6447 24.1599 14.6703 23.5201C15.406 23.0612 15.8993 22.3558 16.0995 21.5504H21V18.7615L20.7696 18.5227C20.7454 18.4975 20.6605 18.4175 20.5496 18.3129L20.5496 18.3129L20.5496 18.3129C20.309 18.086 19.9458 17.7435 19.8123 17.5944C19.0253 16.7156 18.6 15.5071 18.6 13.3605ZM14.3894 21.5504H11.543C11.656 21.7653 11.8486 21.9276 12.1633 22.1239C12.6771 22.4444 13.323 22.4444 13.8368 22.1239C14.0747 21.9755 14.2607 21.7791 14.3894 21.5504ZM18.6321 18.6989C18.8004 18.8869 19.1612 19.2305 19.3999 19.455V19.9147H6.59995V19.4553C6.8368 19.2335 7.19869 18.8901 7.36673 18.7032C8.43532 17.5146 8.99994 15.9104 8.99994 13.3605C8.99994 10.269 10.8662 8.46363 12.9999 8.46363C15.1277 8.46363 16.9999 10.2783 16.9999 13.3605C16.9999 15.9022 17.5647 17.5069 18.6321 18.6989Z" fill="#2B5DA8"/>
<circle cx="22" cy="4" r="4" fill="#FECC00"/>
</svg>
